<?xml version="1.0" standalone="no"?>
<!DOCTYPE svg PUBLIC "-//W3C//DTD SVG 20010904//EN"
 "http://www.w3.org/TR/2001/REC-SVG-20010904/DTD/svg10.dtd">
<svg version="1.0" xmlns="http://www.w3.org/2000/svg"
 width="1088.000000pt" height="1088.000000pt" viewBox="0 0 1088.000000 1088.000000"
 preserveAspectRatio="xMidYMid meet">
<metadata>
Created by potrace 1.14, written by Peter Selinger 2001-2017
</metadata>
<g transform="translate(0.000000,1088.000000) scale(0.100000,-0.100000)"
fill="#000000" stroke="none">
<path d="M5139 9886 c-2 -2 -51 -7 -109 -10 -115 -8 -116 -8 -275 -31 -163
-23 -286 -46 -390 -72 -33 -8 -67 -16 -75 -18 -141 -28 -490 -147 -685 -233
-109 -48 -377 -183 -442 -223 -35 -21 -65 -39 -68 -39 -2 0 -23 -13 -47 -28
-24 -16 -70 -46 -103 -68 -377 -244 -745 -579 -1037 -944 -46 -58 -106 -136
-133 -174 -49 -67 -60 -76 -590 -430 -536 -360 -540 -362 -538 -395 1 -37 37
-81 65 -81 10 0 189 115 399 255 209 140 385 255 390 255 14 0 3 -31 -35 -99
-98 -172 -224 -464 -301 -696 -43 -128 -117 -397 -130 -470 -2 -16 -7 -40 -9
-53 -10 -50 -46 -270 -51 -317 -4 -27 -8 -61 -11 -75 -24 -147 -24 -829 0
-943 3 -12 8 -51 11 -85 4 -52 37 -253 60 -374 4 -22 -1 -32 -32 -55 -21 -15
-40 -30 -43 -33 -3 -3 -75 -59 -160 -124 -85 -65 -163 -128 -172 -139 -25 -27
-22 -47 10 -86 23 -27 33 -33 53 -28 14 4 106 69 204 146 99 77 181 138 183
137 1 -2 14 -43 27 -92 34 -124 117 -373 133 -399 4 -5 7 -14 8 -20 7 -40 187
-423 235 -502 l20 -32 -101 -73 c-107 -77 -179 -128 -304 -217 -94 -66 -104
-92 -54 -145 35 -38 65 -25 240 106 9 7 26 20 38 28 12 8 72 52 134 97 l114
81 48 -76 c49 -78 172 -258 196 -288 7 -9 23 -27 36 -40 12 -14 22 -28 22 -32
0 -4 34 -47 76 -97 153 -181 291 -327 432 -456 l73 -66 -57 -51 c-31 -29 -61
-52 -66 -52 -5 0 -6 -5 -3 -10 3 -6 1 -10 -4 -10 -10 0 -45 -27 -90 -70 -9 -8
-43 -37 -76 -65 -33 -27 -71 -60 -85 -72 -14 -13 -28 -23 -33 -23 -4 0 -5 -4
-2 -10 3 -5 0 -10 -9 -10 -8 0 -16 -3 -18 -7 -2 -5 -34 -35 -73 -68 -38 -32
-77 -66 -86 -75 -9 -8 -38 -33 -64 -55 -27 -22 -64 -55 -83 -73 -18 -17 -38
-32 -43 -32 -9 0 -29 -42 -29 -58 1 -4 11 -19 23 -35 41 -50 60 -45 166 45 53
45 98 84 101 88 3 3 52 45 110 95 58 49 110 94 116 100 6 5 35 30 64 55 30 25
67 57 84 73 17 15 34 27 39 27 4 0 5 5 2 10 -3 5 0 10 7 10 8 0 21 8 29 18 9
9 27 26 40 37 13 11 51 43 84 71 33 28 66 49 73 47 7 -3 24 -15 37 -27 30 -27
37 -33 137 -108 249 -188 556 -364 883 -509 144 -63 486 -183 584 -204 l33 -7
-23 -22 c-13 -11 -55 -48 -94 -81 -38 -33 -72 -62 -75 -65 -3 -3 -36 -32 -75
-65 -38 -33 -72 -62 -75 -65 -3 -3 -39 -34 -80 -69 -93 -80 -110 -98 -110
-121 0 -24 54 -80 77 -80 17 0 68 39 163 124 19 17 66 58 105 91 38 33 85 74
105 91 207 186 245 215 275 211 17 -2 98 -16 180 -30 83 -14 157 -25 165 -25
8 0 33 -2 55 -6 84 -12 133 -17 210 -23 114 -8 575 -8 670 0 180 16 228 22
285 32 8 2 38 6 65 9 28 4 57 9 65 11 8 2 31 6 50 9 31 5 93 17 158 30 13 3
31 7 40 10 9 3 28 7 42 10 14 3 43 10 65 16 22 6 49 13 59 15 68 16 310 92
361 114 11 5 74 30 140 56 148 59 395 178 535 258 95 54 388 242 400 256 3 3
48 38 100 78 52 39 105 79 116 90 12 10 46 38 75 63 152 128 350 327 488 490
35 41 73 86 85 100 11 14 34 43 50 65 16 22 33 44 38 50 39 46 126 174 121
179 -4 3 -1 6 5 6 8 0 73 95 127 188 56 96 125 221 160 291 48 96 50 97 161
196 43 39 92 83 109 99 16 15 61 56 99 90 39 33 89 79 113 101 23 22 62 57 87
78 24 21 59 52 78 70 19 18 56 52 82 75 26 24 50 54 52 67 4 25 -46 85 -72 85
-16 0 -84 -56 -183 -149 -24 -22 -45 -41 -47 -41 -2 0 -16 -12 -32 -27 -16
-16 -64 -59 -106 -98 -43 -38 -89 -80 -103 -92 -21 -21 -43 -30 -43 -19 0 2
23 72 50 155 28 82 53 158 55 168 3 10 16 61 30 113 24 91 54 223 60 265 4 25
13 72 20 105 6 26 10 54 19 129 3 24 8 60 11 80 5 34 9 71 20 196 3 28 8 156
11 285 l6 235 31 28 c18 16 48 43 68 60 19 18 74 66 122 107 60 52 87 82 87
97 0 27 -52 83 -78 83 -18 0 -63 -34 -147 -112 -46 -42 -95 -81 -96 -76 -4 19
-8 44 -13 103 -3 39 -8 79 -10 90 -2 11 -7 45 -11 75 -4 30 -9 64 -11 75 -2
10 -6 37 -10 60 -20 142 -85 398 -151 603 -31 95 -43 146 -36 150 8 6 120 104
167 147 11 10 133 117 205 180 19 17 59 53 89 80 30 28 63 57 73 66 11 9 19
26 19 37 0 26 -53 82 -78 82 -15 0 -245 -195 -458 -389 -89 -81 -78 -81 -114
6 -49 118 -190 397 -248 491 -29 46 -52 85 -52 87 0 7 -64 100 -73 106 -5 3
-8 8 -6 10 2 4 -70 118 -81 129 -3 3 -23 30 -45 60 -58 82 -159 208 -229 288
-200 227 -366 385 -622 591 -61 49 -205 151 -213 151 -6 0 -11 4 -11 9 0 4
-27 25 -61 46 -33 20 -59 41 -57 46 2 5 64 56 138 114 74 57 140 108 145 112
6 5 71 55 145 113 74 57 137 107 140 110 3 3 29 23 58 44 65 47 73 73 37 120
-39 52 -61 47 -155 -31 -15 -12 -553 -431 -617 -480 l-31 -24 -89 50 c-48 27
-95 51 -103 53 -8 2 -17 6 -20 9 -9 11 -150 79 -150 73 0 -4 -8 0 -17 8 -16
13 -199 95 -228 102 -5 2 -23 9 -40 15 -82 34 -378 132 -441 146 -10 2 -35 9
-54 15 -40 12 -187 46 -240 55 -19 3 -42 8 -50 10 -8 2 -28 6 -45 9 -16 2 -61
9 -100 16 -38 6 -86 12 -105 14 -19 2 -60 7 -90 10 -30 3 -80 9 -110 12 -60 7
-605 15 -611 10z m571 -621 c178 -12 344 -35 510 -70 117 -24 216 -50 218 -57
2 -4 8 -6 13 -3 10 7 238 -63 254 -76 5 -5 17 -9 26 -9 9 0 33 -7 53 -15 20
-8 39 -15 43 -16 5 0 18 -7 31 -15 12 -8 22 -12 22 -10 0 14 455 -208 480
-234 3 -3 18 -12 34 -20 56 -29 66 -35 66 -42 0 -5 5 -8 10 -8 12 0 201 -126
239 -159 13 -12 27 -21 30 -21 3 0 18 -10 31 -22 14 -13 46 -39 70 -57 165
-128 511 -472 544 -542 5 -10 12 -19 16 -19 10 0 100 -116 100 -129 0 -6 4
-11 9 -11 5 0 46 -54 90 -120 45 -66 78 -120 74 -120 -4 0 0 -6 9 -12 8 -7 24
-29 34 -48 10 -19 24 -42 30 -50 28 -36 198 -381 235 -477 5 -13 13 -33 19
-45 25 -57 59 -158 54 -158 -4 0 -1 -6 5 -13 6 -8 12 -22 14 -33 2 -10 7 -26
10 -34 22 -54 77 -263 72 -269 -3 -2 -1 -9 4 -15 5 -6 11 -24 14 -41 3 -16 8
-41 11 -55 3 -14 8 -36 10 -50 3 -14 9 -49 15 -78 6 -29 10 -56 9 -60 -1 -4 1
-20 5 -37 3 -16 9 -57 13 -90 3 -33 8 -73 10 -90 7 -57 18 -300 18 -380 0 -92
-12 -345 -19 -390 -2 -16 -7 -59 -10 -95 -4 -36 -8 -67 -10 -70 -2 -3 -6 -30
-10 -60 -4 -30 -9 -58 -11 -61 -2 -4 -6 -24 -9 -44 -2 -21 -7 -45 -9 -54 -3
-9 -8 -32 -11 -51 -7 -43 -43 -189 -52 -210 -3 -8 -8 -24 -10 -35 -2 -11 -6
-27 -10 -35 -3 -8 -7 -19 -8 -25 -6 -22 -66 -201 -74 -220 -5 -11 -29 -67 -52
-125 -24 -58 -47 -108 -52 -111 -5 -3 -8 -9 -8 -13 2 -12 -51 -121 -62 -128
-7 -4 -8 -8 -4 -8 10 0 -72 -153 -115 -217 -15 -23 -28 -46 -28 -52 0 -6 -4
-11 -10 -11 -5 0 -10 -5 -10 -10 0 -13 -130 -207 -160 -237 -11 -13 -18 -23
-15 -23 6 0 -76 -103 -145 -184 -93 -109 -289 -310 -380 -389 -30 -26 -64 -55
-75 -66 -11 -10 -40 -33 -65 -52 -25 -19 -47 -37 -50 -40 -11 -12 -160 -119
-255 -181 -96 -64 -129 -84 -205 -124 -19 -11 -37 -21 -40 -24 -12 -14 -150
-80 -150 -73 0 4 -4 3 -8 -3 -6 -11 -78 -46 -189 -94 -22 -10 -44 -16 -47 -13
-3 4 -6 1 -6 -5 0 -7 -9 -12 -19 -12 -11 0 -22 -4 -26 -9 -3 -5 -19 -12 -35
-16 -17 -4 -43 -13 -58 -21 -16 -7 -37 -15 -48 -17 -10 -2 -26 -7 -34 -10 -30
-13 -202 -66 -209 -65 -3 1 -13 -1 -21 -4 -27 -11 -139 -39 -167 -43 -16 -2
-48 -8 -73 -14 -89 -20 -217 -40 -292 -46 -26 -1 -51 -5 -56 -8 -11 -7 -298
-22 -407 -21 -81 0 -301 11 -365 18 -19 2 -69 7 -110 11 -41 4 -77 8 -80 10
-3 2 -33 7 -65 10 -33 4 -64 9 -68 12 -4 2 -24 7 -45 9 -20 3 -55 10 -77 15
-22 6 -51 13 -65 16 -14 2 -59 13 -100 24 -41 12 -88 24 -105 29 -48 12 -245
79 -258 87 -7 4 -18 8 -25 9 -12 2 -149 58 -181 74 -9 4 -91 45 -183 91 -93
45 -168 86 -168 91 0 5 -4 7 -9 3 -5 -3 -12 -1 -16 4 -3 6 -26 20 -50 32 -25
12 -45 26 -45 31 0 4 -5 8 -10 8 -13 0 -164 100 -168 112 -2 4 -8 8 -13 8 -9
0 -174 122 -189 139 -3 3 -30 26 -60 50 -124 101 -325 300 -469 466 -27 31
-134 169 -151 195 -8 12 -20 28 -26 34 -14 14 -154 224 -154 230 0 2 -22 41
-50 85 -27 45 -46 81 -42 81 4 0 2 4 -4 8 -17 10 -179 347 -190 392 0 3 -8 22
-17 42 -10 21 -17 42 -17 48 0 6 -4 18 -10 28 -13 24 -79 222 -74 222 3 0 0 8
-5 18 -6 11 -12 30 -15 43 -3 13 -14 58 -26 99 -17 64 -28 115 -56 265 -2 11
-6 31 -8 45 -8 40 -17 111 -31 235 -24 213 -24 587 0 775 3 25 8 63 10 85 3
22 7 58 10 80 2 22 7 50 10 63 3 12 8 43 11 69 3 26 8 51 11 56 2 4 7 24 9 45
3 20 8 46 11 57 4 11 8 22 8 25 1 3 7 32 14 65 7 33 17 65 22 71 5 6 7 13 4
16 -4 4 53 193 72 238 3 8 7 22 9 30 5 26 104 264 120 288 8 12 12 22 10 22
-8 0 93 198 162 315 81 139 232 365 243 365 5 0 9 5 9 11 0 11 136 180 220
274 57 64 241 245 309 305 35 30 68 60 75 65 64 56 114 93 120 88 3 -3 6 -2 6
4 0 12 104 93 119 93 5 0 11 4 13 8 3 9 181 127 241 161 20 11 54 30 75 42 20
12 52 30 70 41 17 11 32 16 32 11 0 -4 4 -3 8 3 9 15 172 96 172 87 0 -5 4 -3
8 2 10 15 129 65 136 58 3 -4 6 -1 6 5 0 7 8 12 18 12 10 0 22 3 26 8 4 4 11
7 14 8 4 0 21 6 37 13 82 35 334 113 405 126 8 1 22 5 30 8 16 6 99 24 142 31
15 3 31 7 35 9 5 3 30 8 57 11 27 4 52 9 55 11 4 2 33 6 66 9 33 3 72 8 86 11
37 7 146 16 274 21 61 3 115 7 120 8 14 4 245 -2 345 -9z"/>
<path d="M7172 7900 c-13 -10 -23 -23 -23 -27 -1 -4 -30 -48 -66 -97 -50 -69
-67 -86 -75 -75 -8 11 -8 10 -4 -5 10 -29 -50 -116 -75 -111 -18 4 -19 2 -8
-11 11 -13 11 -18 -1 -28 -8 -6 -21 -24 -29 -39 -8 -15 -35 -53 -61 -85 -25
-31 -55 -72 -65 -90 -11 -17 -23 -32 -27 -32 -4 0 -8 -5 -8 -11 0 -15 -61 -99
-72 -99 -5 0 -7 4 -3 9 3 5 1 12 -4 15 -10 7 -9 -19 1 -30 8 -7 -62 -100 -73
-97 -5 2 -6 -4 -3 -12 4 -8 1 -15 -6 -15 -6 0 -9 -4 -5 -9 3 -6 -1 -13 -8 -18
-7 -4 -22 -22 -32 -40 -10 -18 -23 -29 -28 -26 -6 3 -7 2 -4 -4 3 -5 -1 -20
-10 -32 -12 -19 -17 -20 -25 -10 -7 11 -8 9 -4 -4 4 -13 -17 -53 -69 -128 -42
-59 -81 -114 -88 -121 -7 -7 -16 -21 -20 -31 -4 -10 -11 -16 -15 -13 -5 3 -9
0 -9 -7 0 -13 -52 -97 -60 -97 -2 0 -1 5 2 10 10 16 -1 11 -16 -7 -10 -11 -10
-14 -1 -9 6 4 12 5 12 2 0 -11 -64 -96 -73 -96 -4 0 -6 -4 -3 -9 3 -5 -1 -12
-10 -15 -8 -3 -13 -10 -9 -15 3 -5 1 -12 -4 -15 -5 -4 -38 -49 -72 -101 -45
-68 -68 -94 -78 -90 -9 3 -12 3 -8 -1 4 -4 1 -14 -6 -22 -10 -13 -9 -14 2 -8
8 6 7 0 -4 -18 -10 -14 -22 -26 -27 -26 -5 0 -7 -4 -4 -8 3 -5 -6 -20 -20 -35
-14 -15 -22 -27 -19 -27 3 0 -18 -33 -46 -72 -28 -40 -65 -94 -81 -121 -18
-28 -34 -44 -41 -40 -7 3 -9 3 -5 -2 4 -4 0 -21 -9 -36 -14 -23 -19 -26 -32
-16 -14 10 -14 10 -3 -5 12 -15 8 -24 -25 -70 -22 -29 -48 -67 -58 -85 -10
-18 -22 -30 -25 -28 -4 2 -7 -1 -7 -8 0 -20 -75 -127 -84 -121 -5 3 -6 -1 -3
-9 3 -8 -2 -20 -11 -27 -8 -7 -15 -18 -15 -24 0 -6 -10 -22 -21 -36 -11 -14
-17 -19 -13 -11 4 9 3 12 -4 7 -6 -4 -9 -12 -6 -19 3 -8 -7 -25 -20 -40 -14
-15 -25 -28 -25 -30 2 -12 -16 -35 -24 -30 -6 3 -7 1 -3 -5 3 -6 -13 -42 -37
-79 -24 -37 -54 -87 -67 -110 -13 -23 -27 -40 -32 -37 -5 3 -8 2 -7 -3 3 -20
-2 -34 -11 -28 -6 4 -7 -1 -3 -11 5 -13 3 -15 -7 -9 -9 5 -11 4 -6 -4 4 -6 0
-23 -9 -37 -9 -14 -15 -27 -13 -28 2 -1 33 -15 70 -30 37 -16 65 -32 62 -37
-3 -5 1 -6 9 -3 17 6 50 -23 41 -38 -4 -7 0 -7 13 0 15 8 29 4 68 -20 28 -17
52 -35 53 -39 2 -5 8 -9 14 -9 17 0 108 -73 102 -82 -3 -4 4 -8 15 -8 12 0 21
-4 21 -10 0 -5 7 -10 16 -10 9 0 12 -5 8 -12 -5 -7 -3 -8 5 -4 7 5 10 10 7 13
-6 7 34 83 44 83 4 0 7 6 7 13 1 20 49 98 57 90 4 -4 5 -1 2 7 -3 8 -1 22 4
30 9 13 12 13 25 -4 13 -18 14 -18 12 2 0 11 -5 18 -9 16 -15 -10 -8 24 11 47
10 13 19 27 20 31 5 24 14 37 23 32 5 -3 9 0 8 7 -4 24 12 59 23 52 6 -3 7 -1
3 5 -7 12 58 142 78 154 6 4 8 8 4 8 -11 0 52 120 63 120 6 0 8 4 4 10 -3 5
20 58 51 117 32 59 62 118 68 130 6 13 15 23 19 23 5 0 5 5 2 10 -3 6 -1 10 4
10 6 0 10 3 10 8 -4 18 24 71 34 65 6 -4 8 -1 5 8 -7 18 66 162 76 152 4 -5 7
-1 5 7 -5 28 12 62 28 55 13 -4 13 -3 4 8 -9 11 -6 21 11 43 13 15 18 25 12
21 -6 -3 3 20 20 52 17 33 34 58 37 55 4 -2 7 8 7 23 0 14 6 31 14 37 8 6 13
16 11 22 -2 6 3 17 12 24 9 7 15 8 15 2 0 -6 -6 -13 -12 -15 -10 -4 -10 -6 -1
-6 17 -1 26 18 15 32 -11 15 90 222 103 210 4 -5 5 -2 1 5 -5 8 -1 21 10 33 9
10 14 19 10 19 -9 0 51 117 64 125 6 3 8 10 5 15 -6 10 73 173 86 178 5 2 7 8
3 13 -3 5 0 9 6 9 6 0 9 4 5 9 -3 5 -1 12 5 16 6 4 8 9 6 13 -2 4 7 27 20 52
14 26 22 35 19 20 -5 -19 -4 -22 4 -10 6 8 8 22 5 31 -2 10 8 31 23 50 15 18
22 29 15 25 -9 -6 -8 3 4 25 10 19 19 36 19 39 7 28 59 129 65 125 4 -3 7 1 6
8 -2 19 167 376 176 371 4 -3 5 3 1 12 -5 14 -3 16 12 11 13 -6 15 -4 8 5 -15
20 24 101 44 94 13 -5 14 -4 4 8 -10 11 -7 25 15 68 14 29 31 55 35 56 5 2 7
7 4 12 -2 4 2 22 11 39 32 63 -4 104 -54 61z"/>
<path d="M7076 7818 c3 -5 10 -6 15 -3 13 9 11 12 -6 12 -8 0 -12 -4 -9 -9z"/>
<path d="M7025 7729 c-4 -6 -5 -12 -2 -15 2 -3 7 2 10 11 7 17 1 20 -8 4z"/>
<path d="M6839 7507 c6 -8 9 -16 6 -19 -3 -2 2 -5 10 -5 13 0 13 3 -2 19 -19
21 -31 25 -14 5z"/>
<path d="M6820 7466 c0 -2 7 -7 16 -10 8 -3 12 -2 9 4 -6 10 -25 14 -25 6z"/>
<path d="M7001 7342 c-7 -13 -6 -19 2 -19 7 0 13 9 13 19 0 10 -1 18 -3 18 -1
0 -7 -8 -12 -18z"/>
<path d="M6480 7026 c0 -2 8 -10 18 -17 15 -13 16 -12 3 4 -13 16 -21 21 -21
13z"/>
<path d="M6210 6585 c-7 -9 -8 -15 -2 -15 5 0 12 7 16 15 3 8 4 15 2 15 -2 0
-9 -7 -16 -15z"/>
<path d="M6096 6458 c3 -5 10 -6 15 -3 13 9 11 12 -6 12 -8 0 -12 -4 -9 -9z"/>
<path d="M6016 6298 c3 -5 10 -6 15 -3 13 9 11 12 -6 12 -8 0 -12 -4 -9 -9z"/>
<path d="M5962 6231 c-11 -7 -11 -9 0 -14 9 -3 15 1 15 9 0 8 -1 14 -1 14 -1
0 -7 -4 -14 -9z"/>
<path d="M6335 5959 c-4 -6 -5 -12 -2 -15 2 -3 7 2 10 11 7 17 1 20 -8 4z"/>
<path d="M5456 5487 c3 -10 9 -15 12 -12 3 3 0 11 -7 18 -10 9 -11 8 -5 -6z"/>
<path d="M5380 5425 c-7 -9 -8 -15 -2 -15 5 0 12 7 16 15 3 8 4 15 2 15 -2 0
-9 -7 -16 -15z"/>
<path d="M6006 5314 c-5 -14 -4 -15 9 -4 17 14 19 20 6 20 -5 0 -12 -7 -15
-16z"/>
<path d="M5136 5018 c3 -5 10 -6 15 -3 13 9 11 12 -6 12 -8 0 -12 -4 -9 -9z"/>
<path d="M5826 4927 c3 -10 9 -15 12 -12 3 3 0 11 -7 18 -10 9 -11 8 -5 -6z"/>
<path d="M5048 4755 c-6 -14 -15 -25 -19 -25 -5 0 -5 -7 -2 -17 4 -11 3 -14
-6 -9 -8 5 -12 3 -10 -5 3 -28 -1 -40 -13 -33 -7 5 -8 3 -3 -5 11 -18 -136
-336 -147 -319 -6 9 -7 6 -3 -8 6 -23 -69 -193 -92 -207 -7 -4 -10 -14 -7 -22
3 -8 -5 -35 -19 -59 -14 -25 -30 -61 -37 -81 -11 -32 -20 -40 -43 -36 -5 1 -6
-3 -2 -9 3 -6 10 -8 15 -5 5 3 1 -14 -9 -37 -35 -79 -35 -85 -3 -86 42 -1 145
-49 136 -63 -4 -7 -3 -9 3 -6 13 8 65 -31 58 -44 -4 -5 2 -6 11 -2 10 3 15 2
12 -3 -2 -5 6 -20 20 -34 13 -14 22 -20 20 -15 -2 6 17 33 41 60 24 28 41 45
38 40 -3 -6 4 -12 15 -12 19 -2 19 -1 3 11 -15 11 -12 19 40 92 31 43 61 81
66 82 5 2 9 8 9 13 0 14 42 69 52 69 5 0 7 -4 4 -8 -3 -5 1 -9 8 -9 11 0 11 4
4 17 -8 13 -5 24 12 48 13 18 31 32 39 32 14 0 14 2 1 10 -12 8 -12 10 2 15 9
4 18 16 21 27 3 11 10 17 17 13 6 -3 10 -3 9 2 -3 19 2 27 10 14 6 -9 11 -10
15 -2 4 6 2 11 -3 11 -6 0 -11 4 -11 9 0 14 62 86 72 83 5 -1 7 2 4 7 -9 14
105 163 120 157 8 -3 11 0 8 9 -3 8 6 29 20 48 21 28 24 36 12 40 -23 9 -136
99 -136 109 0 5 -4 6 -10 3 -5 -3 -10 -1 -10 6 0 7 -3 9 -7 6 -3 -4 -14 0 -23
8 -9 8 -60 37 -113 64 -53 27 -93 51 -90 54 3 3 -5 3 -18 0 -17 -5 -20 -3 -14
7 5 9 4 11 -3 6 -6 -4 -21 -2 -32 4 -17 9 -22 7 -32 -15z"/>
<path d="M5275 4711 c-3 -5 -2 -12 3 -15 5 -3 9 1 9 9 0 17 -3 19 -12 6z"/>
<path d="M5320 4706 c0 -2 7 -7 16 -10 8 -3 12 -2 9 4 -6 10 -25 14 -25 6z"/>
<path d="M4979 4683 c-13 -16 -12 -17 4 -4 16 13 21 21 13 21 -2 0 -10 -8 -17
-17z"/>
<path d="M5430 4660 c0 -5 5 -10 11 -10 5 0 7 5 4 10 -3 6 -8 10 -11 10 -2 0
-4 -4 -4 -10z"/>
<path d="M5419 4617 c6 -8 7 -18 3 -22 -4 -5 -1 -5 6 -1 10 6 10 11 1 22 -6 8
-14 14 -16 14 -3 0 0 -6 6 -13z"/>
<path d="M5495 4610 c3 -5 8 -10 11 -10 2 0 4 5 4 10 0 6 -5 10 -11 10 -5 0
-7 -4 -4 -10z"/>
<path d="M5515 4540 c-3 -6 1 -7 9 -4 18 7 21 14 7 14 -6 0 -13 -4 -16 -10z"/>
<path d="M5463 4358 c1 -7 -4 -12 -11 -10 -8 1 -11 -2 -7 -8 5 -8 11 -8 21 1
7 6 11 15 8 20 -8 13 -14 11 -11 -3z"/>
<path d="M5390 4267 c0 -2 6 -10 14 -16 11 -9 16 -9 22 1 4 7 4 10 -1 6 -4 -4
-14 -3 -22 3 -7 6 -13 9 -13 6z"/>
<path d="M5250 4026 c0 -2 8 -10 18 -17 15 -13 16 -12 3 4 -13 16 -21 21 -21
13z"/>
<path d="M5085 3851 c-3 -5 -2 -12 3 -15 5 -3 9 1 9 9 0 17 -3 19 -12 6z"/>
<path d="M4444 3760 c-61 -13 -101 -32 -176 -83 -36 -25 -69 -43 -73 -39 -3 3
-3 -2 1 -12 6 -15 4 -17 -6 -11 -8 5 -11 4 -7 -2 8 -13 -47 -116 -57 -106 -4
4 -4 -1 0 -11 5 -13 4 -17 -4 -12 -6 3 -14 1 -18 -5 -4 -8 -3 -9 4 -5 8 5 12
0 12 -13 0 -12 -5 -21 -11 -21 -5 0 -8 -4 -5 -8 8 -14 -44 -173 -54 -167 -6 3
-7 -1 -4 -9 14 -37 -132 -241 -168 -234 -7 2 -12 -2 -11 -9 3 -12 -30 -39 -76
-63 -15 -7 -21 -8 -17 -1 5 7 1 9 -8 5 -9 -3 -14 -10 -11 -14 6 -10 -24 -22
-36 -14 -5 3 -9 1 -9 -5 0 -11 -100 -42 -150 -46 -33 -2 -35 -4 -35 -36 l0
-34 205 -3 c383 -6 728 39 905 117 26 11 52 18 58 14 5 -3 8 -2 5 3 -3 5 14
21 39 36 24 16 42 24 38 19 -3 -5 0 -13 6 -17 7 -4 9 -3 5 4 -8 14 43 74 56
65 6 -3 8 -1 5 4 -8 13 27 46 37 36 4 -5 7 -3 6 2 -4 18 12 55 21 49 5 -3 6 1
3 9 -3 8 1 21 8 28 19 20 21 40 22 174 1 113 -1 123 -27 173 -15 29 -25 57
-22 62 3 5 0 12 -6 16 -8 5 -10 2 -5 -7 4 -8 -2 -3 -13 10 -12 12 -18 28 -14
34 3 5 2 8 -3 5 -5 -3 -25 8 -44 24 -19 17 -28 27 -20 23 9 -5 12 -4 7 1 -5 5
-12 9 -15 9 -4 0 -22 6 -40 14 -30 13 -31 15 -15 28 17 13 16 13 -3 4 -15 -7
-33 -6 -65 5 -54 19 -160 26 -215 14z"/>
<path d="M4295 3751 c6 -11 4 -13 -8 -8 -9 3 -19 1 -23 -6 -4 -7 -4 -9 1 -5 4
4 16 3 25 -2 14 -7 18 -6 16 5 -1 8 -6 18 -11 22 -4 5 -5 2 0 -6z"/>
</g>
</svg>
