<?xml version="1.0" standalone="no"?>
<!DOCTYPE svg PUBLIC "-//W3C//DTD SVG 20010904//EN"
 "http://www.w3.org/TR/2001/REC-SVG-20010904/DTD/svg10.dtd">
<svg version="1.0" xmlns="http://www.w3.org/2000/svg"
 width="267.000000pt" height="267.000000pt" viewBox="0 0 267.000000 267.000000"
 preserveAspectRatio="xMidYMid meet">
<metadata>
Created by potrace 1.14, written by Peter Selinger 2001-2017
</metadata>
<g transform="translate(0.000000,267.000000) scale(0.100000,-0.100000)"
fill="#000000" stroke="none">
<path d="M1550 2448 l-83 -62 66 -12 c36 -7 97 -23 135 -35 l68 -22 73 49 74
49 -54 24 c-42 18 -186 71 -194 71 -1 0 -39 -28 -85 -62z"/>
<path d="M2157 2097 l-48 -42 46 -60 c26 -33 58 -79 72 -102 14 -24 28 -43 32
-43 3 0 29 20 56 44 l50 44 -18 33 c-28 54 -117 169 -130 169 -7 0 -34 -19
-60 -43z"/>
<path d="M1709 1874 c-227 -318 -449 -651 -449 -670 1 -5 29 -25 63 -45 l62
-37 22 37 c65 105 415 829 411 850 -2 8 -51 -53 -109 -135z"/>
<path d="M228 1442 c-93 -71 -98 -77 -98 -113 0 -71 4 -72 88 -18 42 28 81 54
86 59 6 6 27 142 22 146 -1 0 -45 -33 -98 -74z"/>
<path d="M2445 1289 c-79 -69 -77 -65 -100 -173 -10 -44 -30 -111 -46 -149
-33 -79 -40 -82 98 36 l91 79 11 66 c13 83 25 202 20 202 -2 0 -35 -28 -74
-61z"/>
<path d="M1216 1117 c-13 -29 -38 -83 -55 -122 -31 -68 -34 -95 -10 -95 7 0
20 -7 29 -15 20 -18 26 -13 123 121 l66 91 -27 20 c-29 21 -87 53 -97 53 -3 0
-17 -24 -29 -53z"/>
<path d="M1040 883 c-35 -24 -45 -40 -64 -99 -19 -59 -66 -108 -115 -119 -17
-4 -31 -11 -31 -17 0 -16 203 -3 267 17 69 21 103 53 110 103 13 95 -92 167
-167 115z"/>
<path d="M433 709 c-35 -27 -63 -53 -63 -58 0 -11 95 -120 137 -157 l35 -31
-111 -98 c-61 -54 -111 -101 -111 -106 0 -26 29 -8 131 80 103 89 116 97 133
85 21 -14 28 -10 108 62 l40 36 -83 78 c-46 43 -97 96 -114 119 -16 22 -32 40
-35 40 -3 0 -33 -22 -67 -50z"/>
<path d="M1585 354 c-27 -7 -95 -18 -149 -24 -55 -5 -106 -16 -115 -23 -65
-50 -140 -122 -134 -128 8 -7 114 -13 189 -10 35 1 53 12 158 101 65 55 114
100 109 99 -4 0 -30 -7 -58 -15z"/>
</g>
</svg>
